<svg width="91.58" height="71.7" xmlns="http://www.w3.org/2000/svg">
  <path d="m67.04 25 .6 1.2 10.4-.2a310.27 310.27 0 0 1 2.17-.08q7.74-.27 9.33.13a2.39 2.39 0 0 1 1.71 1.5q.18.43.26.99a5.7 5.7 0 0 1 .03.26 8.87 8.87 0 0 1 .03.56q.06 1.7-.63 2.74-.7 1-1.85 1.5a4.08 4.08 0 0 1-.43.16q-.66.2-1.16.05a1.3 1.3 0 0 1-.26-.11 2.14 2.14 0 0 0-.56-.14q-2.1-.34-10.93-.26a460.35 460.35 0 0 0-.51 0h-5.4l.3 3.4q.3 5 .15 11.35T69.64 55a1.51 1.51 0 0 0-.32.47q-.18.43-.23 1.08a5.71 5.71 0 0 0 0 .15 4.58 4.58 0 0 1-.11.84q-.12.49-.34.88a2.64 2.64 0 0 1-.15.23q-.55.75-.55 1.55a1.97 1.97 0 0 1-.07.46q-.2.82-1.03 2.34l-2 3.5a6.21 6.21 0 0 1-.6 1.1 4.52 4.52 0 0 1-1 1.05 16.7 16.7 0 0 1-.72.5q-.75.51-1.83 1.14a61.1 61.1 0 0 1-.35.21 14.58 14.58 0 0 1-1.55.67q-1.46.53-2.65.53a12.27 12.27 0 0 1-.57-.01q-.92-.05-1.23-.24-.37-.23-.92-1.28a13.54 13.54 0 0 1-.08-.17q-.8-1.34-.96-1.94a1.01 1.01 0 0 1-.04-.26.92.92 0 0 0-.02-.18q-.06-.28-.31-.32a.56.56 0 0 0-.07 0 .31.31 0 0 1-.23-.1q-.26-.28-.47-1.2-.3-1.3-1-1.45-.7-.15-2.88-2.22a48.27 48.27 0 0 1-.02-.03 27.34 27.34 0 0 1-.45-.53q-1.29-1.58-.85-1.67 1 0 3.3.8a19.8 19.8 0 0 0 3.11.82 17.18 17.18 0 0 0 1.39.18q1.58.2 2.08 0a.77.77 0 0 0 .02 0q.43-.17 1.4-1.18a23.35 23.35 0 0 0 .3-.32q1.7-1.9 2.65-3.8a15.99 15.99 0 0 0 .59-1.34q.55-1.42 1.08-3.4a54.92 54.92 0 0 0 .18-.66q.7-2.1.7-8.75a100.65 100.65 0 0 0-.03-2.31q-.08-3.43-.41-4.99a4.13 4.13 0 0 0-.26-.85 10.34 10.34 0 0 0-.18-.46q-.37-.9-.65-.94a.18.18 0 0 0-.02 0 1.54 1.54 0 0 0-.2.02q-.44.06-1.56.33a59.4 59.4 0 0 0-.2.05l-5.4 1.1a67.5 67.5 0 0 0-2.6.6q-4.27 1.1-5.97 2.28a3.96 3.96 0 0 0-.62.52 7.76 7.76 0 0 1-.42.43q-.72.67-1.18.67-2.2 0-4.8-2.3a27.69 27.69 0 0 0-.48-.43q-.98-.87-1.22-.87-.3 0-.3-.95a4.69 4.69 0 0 1 .01-.41q.04-.4.14-.63a.72.72 0 0 1 .15-.21 1.82 1.82 0 0 1 .53-.48q1.53-1.02 6.87-2.57a96.84 96.84 0 0 1 7.28-1.83 76.28 76.28 0 0 1 5.32-.92 62.95 62.95 0 0 0 .77-.14q2.47-.49 2.53-.75a.06.06 0 0 0 0-.01.9.9 0 0 0-.04-.22q-.13-.5-.77-1.79a39.09 39.09 0 0 0-.04-.09 44.76 44.76 0 0 0-.62-1.2q-.5-.91-.93-1.6a8.36 8.36 0 0 1-.7-1.2q-.51-1.11-.51-2.16a4.15 4.15 0 0 1 0-.24q0-.9 1.2-1.2a1.97 1.97 0 0 0 1.08-.62q.97-1 1.63-3.58.3-1.4 1.1-3.1a25.32 25.32 0 0 1 .5-1 10.05 10.05 0 0 0 .15-.38q.27-.75.22-1.07a.4.4 0 0 0-.02-.1.38.38 0 0 0-.17-.18q-.26-.14-.86-.17a5.99 5.99 0 0 0-.22 0q-1.16 0-4.39.71a107.36 107.36 0 0 0-1.46.34 119.11 119.11 0 0 0-1.56.38q-3.1.77-4 1.22-.86.43-1.6.53a3.18 3.18 0 0 1-.4.02q-.26 0-.43-.09a.48.48 0 0 1-.21-.21q-.13-.26-.15-1.13a13.95 13.95 0 0 1 0-.27V6.3l2.3-.9q3.04-1.01 9.89-2.79a492.46 492.46 0 0 1 1.2-.31 3.98 3.98 0 0 1 .36-.05q1.06-.09 3.5.08a84.45 84.45 0 0 1 1 .07 54.23 54.23 0 0 1 1.51.14q2.48.27 3.34.66a20.74 20.74 0 0 1 1.52.68q2.52 1.25 2.9 2.55a1.65 1.65 0 0 1 .08.47 2.15 2.15 0 0 1-.11.64q-.18.58-.67 1.29a9.49 9.49 0 0 1-.22.32 6.89 6.89 0 0 1-.43.53q-.75.82-1.37.82a.53.53 0 0 0-.17.04q-.38.14-1.4.76a43.66 43.66 0 0 0-.48.3 35.8 35.8 0 0 0-.8.52q-1.1.73-1.55 1.18l-2.2 1.1a31.27 31.27 0 0 0-1.12.58q-2.13 1.18-2.27 1.83a.42.42 0 0 0-.01.09.2.2 0 0 0 .03.08q.24.42 2.17 2.52 2.2 2.4 2.45 3.4a7.8 7.8 0 0 0 .36 1.1 10.5 10.5 0 0 0 .49 1Zm-45-12.1q.3-1 1.15-3.2.7-1.81 1.02-2.95a13.18 13.18 0 0 0 .13-.45q.29-1.16 1.13-3.56a121.72 121.72 0 0 1 .07-.19q.9-2.55 1-2.55a.14.14 0 0 1 .05.03q.25.19 1.57 1.5a186.41 186.41 0 0 1 .48.47 13.4 13.4 0 0 1 1.1 1.15q2.08 2.5 1.1 4.45a10.25 10.25 0 0 0-.52 1.03q-.8 1.78-1.74 5.12a90 90 0 0 0-.04.15 33.58 33.58 0 0 1-.3.93q-.51 1.52-.9 2.07a1.01 1.01 0 0 0-.16.22q-.2.34-.34 1.03-.15.68-.21 1.21a8.15 8.15 0 0 0-.04.39 3.72 3.72 0 0 0-.01.1q-.03.56.16.65a3.08 3.08 0 0 0 .57-.06q.55-.1 1.24-.4a10.84 10.84 0 0 0 .24-.09q1.05-.46 1.5-.96a1.64 1.64 0 0 0 .15-.19 2.55 2.55 0 0 1 .18-.33q.67-1 1.72.13a1.2 1.2 0 0 0 .42.35q.64.34 2.02.43a13.82 13.82 0 0 0 .3.02 7.37 7.37 0 0 1 1.03.11q1.15.22 1.7.81a1.87 1.87 0 0 1 .23.28 5.85 5.85 0 0 1 .23.29q.33.43.36.7a.47.47 0 0 1 0 .06.74.74 0 0 1-.03.21q-.1.33-.46.84-1.3 2.6-2.08 4.66a27 27 0 0 0-.52 1.54 30.45 30.45 0 0 1-.39 1.27q-.2.63-.4 1.16a15.77 15.77 0 0 1-.26.62 7.69 7.69 0 0 0-.34.9q-.14.48-.19.9a3.96 3.96 0 0 0-.02.45 3.25 3.25 0 0 1-.14.79q-.6 2.2-3.76 8.61a9.29 9.29 0 0 0-.2.4q-.34.77-.27 1.12a.44.44 0 0 0 .02.08q.12.34 2.16 2.52a160.66 160.66 0 0 0 .79.83 105.42 105.42 0 0 1 1.61 1.74q1.64 1.8 2.64 3.11a15.99 15.99 0 0 0 1.7 1.92 13 13 0 0 0 1.45 1.18q1 .8 1.3 1.3a1.72 1.72 0 0 1 .17.4q.11.4.13.97a6.34 6.34 0 0 1 0 .13 8.6 8.6 0 0 1-.05.89q-.11 1.12-.55 1.71a6.6 6.6 0 0 0-.24.33q-.36.56-.36.87 0 .7-1.15 2.25t-1.55 1.55a1.94 1.94 0 0 1-.53-.08q-.8-.23-2.13-1.08a22.55 22.55 0 0 1-.3-.19 28.66 28.66 0 0 1-.7-.48q-1.4-.98-1.64-1.47-.3-1-.75-1.3a.91.91 0 0 1-.35-.44q-.1-.27-.1-.66a6.25 6.25 0 0 0-.12-1.13q-.21-1.16-.83-2.67-.95-2.3-2.45-4.3a46.63 46.63 0 0 0-.46-.63q-.94-1.24-1.34-1.57-.5-.4-1.3-.3-1.2.25-7.82 4.64a352.2 352.2 0 0 0-2.48 1.66 80.84 80.84 0 0 1-2.04 1.28q-5.48 3.33-6.16 2.22a.24.24 0 0 1-.05-.15q0-.44 1.35-1.45a24.53 24.53 0 0 0 1.02-.93q2.18-2.06 6.83-7.03a524.28 524.28 0 0 0 .05-.04 95.16 95.16 0 0 0 1.57-1.7q3.24-3.61 3.24-4.58a.43.43 0 0 0-.01-.12.94.94 0 0 0-.17-.24q-.46-.54-2.11-1.68a45.6 45.6 0 0 0-.12-.08 11.6 11.6 0 0 1-1.22-.97q-1.98-1.81-1.58-3.63.22-.59.03-1.26a3.05 3.05 0 0 0-.18-.49 3.05 3.05 0 0 1-.19-.49q-.19-.67.04-1.26.5-1.1.9-2.35.36-1.13.23-1.4a.17.17 0 0 0-.03-.05q-.18-.26-1.87.26a26.27 26.27 0 0 0-.58.19 36.99 36.99 0 0 0-2.61.99 46.76 46.76 0 0 0-2.14.96q-2.9 1.4-4.1 1.35-.98-.04-2.28-1.23a12.11 12.11 0 0 1-.62-.62 10.12 10.12 0 0 1-.6-.58q-1.22-1.29-.85-2.07.36-.77 2.83-2.18a41.86 41.86 0 0 1 1.22-.67q3.4-1.7 13.6-4.4a7.97 7.97 0 0 0 .51-.15q.77-.24 1.04-.55a1.41 1.41 0 0 0 .16-.25q.23-.42.49-1.29a17.92 17.92 0 0 0 .1-.36 173.48 173.48 0 0 0 .67-2.11q.9-2.87 1.22-4.33a11.81 11.81 0 0 0 .1-.56Zm6.3 14.5a.05.05 0 0 0-.03-.04q-.09-.05-.42-.01l-1.2.15a6.68 6.68 0 0 0-1.05.23 8.06 8.06 0 0 0-.5.17 5.74 5.74 0 0 0-.62.14q-.63.17-.98.47a1.5 1.5 0 0 0-.1.09q-.47.46-1.27 2.04a33.58 33.58 0 0 0-.13.26 183.13 183.13 0 0 1-.49.9q-.97 1.78-1.21 2.1-.5.4-.4 1.3a2.67 2.67 0 0 0 .06.38q.13.46.4.65a.7.7 0 0 0 .14.07q.6.3.6.8a.57.57 0 0 0 .09.29q.21.35.92.84a10.12 10.12 0 0 0 .34.22 8.18 8.18 0 0 0 .37.22q.8.45 1.13.34a.3.3 0 0 0 .15-.11q.3-.4 1.3-3.1a882.23 882.23 0 0 0 .68-1.88q2.22-6.17 2.22-6.52Z" vector-effect="non-scaling-stroke" stroke-linecap="round" fill-rule="evenodd" font-size="12" stroke="#000" stroke-width=".94" style="stroke:#000;stroke-width:.25mm;fill:#000"/>
</svg>